<svg width="64" height="64" viewBox="0 0 64 64" fill="none" xmlns="http://www.w3.org/2000/svg">
<path fill-rule="evenodd" clip-rule="evenodd" d="M31.9995 0C49.6729 0 64 14.3271 64 31.9995C64 49.6729 49.6729 64 31.9995 64C14.3271 64 0 49.6729 0 31.9995C0 14.3271 14.3271 0 31.9995 0Z" fill="#8CD8CA"/>
<path d="M20.5464 42.6986C20.4337 43.2253 20.3297 43.7492 20.2315 44.2711C20.1878 44.5131 20.144 44.7649 20.1003 45.0273C20.0604 45.2693 20.0206 45.522 19.9808 45.7863L19.9565 45.9477L19.5065 45.9457L19.5278 45.7397C19.556 45.4675 19.5842 45.209 19.6134 44.9631C19.6416 44.725 19.6746 44.4665 19.7115 44.1885C19.7844 43.6423 19.869 43.1087 19.9623 42.5848C20.0566 42.059 20.1625 41.5284 20.2772 40.9938C20.3909 40.466 20.5173 39.9364 20.6553 39.4037C20.7913 38.8808 20.9391 38.3618 21.0975 37.8467C21.1772 37.5882 21.2608 37.3297 21.3482 37.0711C21.4377 36.8058 21.5281 36.5482 21.6194 36.3004L21.6204 36.2994C21.7176 36.0399 21.8148 35.7843 21.9139 35.5374C22.015 35.2857 22.1199 35.035 22.2327 34.7832C22.3445 34.5257 22.4601 34.2769 22.5777 34.0358C22.6905 33.8045 22.8168 33.5576 22.95 33.303V33.301C23.0812 33.059 23.2172 32.819 23.3572 32.5828C23.4972 32.3456 23.641 32.1114 23.7839 31.882L23.7868 31.8791L24.6625 30.5252C24.8025 30.3056 24.9356 30.0869 25.0571 29.8653C25.1757 29.6476 25.2836 29.427 25.3749 29.2015C25.4614 28.9789 25.5314 28.7554 25.5829 28.5279C25.6334 28.3005 25.6655 28.0711 25.6743 27.8369V27.833C25.6879 27.5959 25.6801 27.3568 25.6587 27.1167C25.6373 26.8737 25.6014 26.6278 25.5567 26.3829C25.4702 25.9261 25.3506 25.4703 25.2116 25.0174C25.0794 24.5887 24.9307 24.1601 24.7752 23.7325C24.5682 23.6538 24.367 23.5653 24.1688 23.4652C23.9442 23.3534 23.7265 23.2271 23.5108 23.0832L23.5088 23.0823C23.2581 22.9093 23.0034 22.7071 22.7779 22.4593C22.5486 22.2085 22.3503 21.9101 22.2152 21.5476H22.2142C22.1491 21.3688 22.1073 21.1763 22.0888 20.9829C22.0714 20.7856 22.0772 20.5873 22.1083 20.3998H22.1093C22.1384 20.2122 22.187 20.0363 22.2492 19.871C22.3114 19.7068 22.3863 19.5523 22.4689 19.4084V19.4074C22.6341 19.1207 22.8217 18.87 23.0219 18.6425C23.2211 18.4161 23.434 18.212 23.6498 18.0205H23.6507C23.8675 17.8281 24.0881 17.6492 24.3165 17.483C24.5468 17.3139 24.7859 17.1555 25.0367 17.0068C25.2952 16.8532 25.5674 16.6997 25.8346 16.548C26.0057 16.4518 26.1748 16.3566 26.4149 16.2156H26.4158C26.6384 16.0864 26.8561 15.9552 27.067 15.822C27.2779 15.6889 27.485 15.5509 27.6871 15.407C27.7862 15.337 27.8854 15.2632 27.9835 15.1883C28.0827 15.1125 28.1779 15.0377 28.2693 14.9638C28.419 14.8355 28.5686 14.7082 28.7193 14.5818L28.7766 14.5381C28.834 14.4944 28.8933 14.4497 28.937 14.4205C29.4657 14.0609 30.0576 13.8296 30.668 13.7198C31.3017 13.6051 31.9568 13.6216 32.5827 13.7615C32.8888 13.8296 33.1882 13.9277 33.473 14.0531C33.7616 14.1795 34.0376 14.334 34.2952 14.5119C34.545 14.6829 34.7773 14.8754 34.9921 15.0843C35.2185 15.304 35.4246 15.5411 35.6083 15.787H35.6073L35.7239 15.9425C35.7268 15.9455 35.7278 15.9474 35.7288 15.9484C35.7346 15.9532 35.7395 15.9581 35.7453 15.9668L35.7715 15.9931C35.7939 16.0135 35.8153 16.032 35.8357 16.0465C35.8571 16.0621 35.8794 16.0757 35.9037 16.0883V16.0874C35.9319 16.1019 35.9591 16.1136 35.9873 16.1233C36.0174 16.134 36.0476 16.1428 36.0767 16.1486H36.0777C36.1098 16.1554 36.1409 16.1593 36.1817 16.1632C36.2352 16.168 36.2828 16.17 36.3479 16.1729H36.3498C36.4898 16.1807 36.6084 16.1845 36.7231 16.1865C36.8436 16.1884 36.9622 16.1875 37.0934 16.1865C37.2168 16.1865 37.3431 16.1836 37.4724 16.1807C37.5949 16.1768 37.7232 16.1719 37.8544 16.1661C38.3685 16.1418 38.8836 16.1058 39.3958 16.0611C39.8974 16.0164 40.4125 15.96 40.9354 15.8949L40.9577 15.893L40.9898 15.891C41.2056 15.8764 41.4233 15.9192 41.6186 16.0077C41.814 16.0961 41.9889 16.2302 42.1201 16.4003C42.1512 16.4402 42.1814 16.4839 42.2105 16.5315C42.2387 16.5772 42.263 16.6239 42.2854 16.6715C42.3301 16.7638 42.3631 16.8843 42.3709 16.9164L42.3719 16.9193L42.4448 17.1934L42.4457 17.1953C42.4934 17.3829 42.5361 17.5705 42.574 17.76C42.611 17.9466 42.644 18.1391 42.6722 18.3354V18.3373C42.7247 18.7222 42.7616 19.1178 42.7616 19.5241C42.7616 19.9313 42.7247 20.3463 42.6314 20.7691V20.771C42.5818 20.9819 42.5147 21.1967 42.4253 21.4086C42.3349 21.6224 42.2232 21.8304 42.0832 22.0258V22.0248C41.9442 22.2221 41.7761 22.4029 41.5885 22.5594C41.4009 22.7168 41.1939 22.85 40.9781 22.9511L40.9772 22.9501C40.7867 23.0395 40.6525 23.0881 40.5029 23.1425L40.4096 23.1765L40.4066 23.1775L39.8876 23.3583L39.8867 23.3593C39.7146 23.4186 39.5475 23.4769 39.39 23.5352C39.2228 23.5964 39.0634 23.6586 38.9157 23.7208V23.7218C38.6096 23.8491 38.318 23.9939 38.0507 24.1601C37.7883 24.3254 37.5502 24.511 37.348 24.7238H37.347C37.1507 24.9299 36.9913 25.1651 36.8718 25.4236C36.7483 25.688 36.6657 25.9747 36.6249 26.277C36.5841 26.5812 36.5802 26.898 36.6035 27.2207C36.6278 27.5444 36.6803 27.8738 36.7503 28.2004C36.8232 28.5318 36.9155 28.8594 37.0224 29.185C37.1293 29.5106 37.2508 29.8371 37.383 30.1608H37.382C37.521 30.4941 37.659 30.8324 37.7922 31.1638C37.9321 31.5137 38.0672 31.8568 38.1916 32.1833V32.1843L38.9546 34.2224C38.9876 34.3138 39.0702 34.5383 39.1538 34.7667C39.3317 35.2517 39.5086 35.7347 39.6932 36.2693L39.6942 36.2712C39.8196 36.6445 39.9226 37.0235 39.9994 37.4064C40.0713 37.769 40.1199 38.1393 40.1403 38.5135C40.1607 38.8876 40.153 39.2628 40.1199 39.636C40.0849 40.0238 40.0227 40.4068 39.9362 40.779V40.78C39.8507 41.1474 39.7428 41.507 39.6165 41.8588C39.4911 42.2097 39.3482 42.5537 39.1917 42.89H39.1908C38.9721 43.3565 38.7272 43.8046 38.4628 44.2381C38.2004 44.6686 37.9146 45.0885 37.6143 45.5006L37.5628 45.5725L37.0389 45.6085L37.243 45.2926C37.5696 44.7862 37.8505 44.2915 38.0906 43.8104C38.3442 43.3041 38.5503 42.8152 38.7145 42.3467L38.7155 42.3428C38.8234 42.059 38.9186 41.7752 39.0003 41.4924C39.0829 41.2076 39.1519 40.9199 39.2044 40.6284C39.252 40.364 39.285 40.0957 39.3045 39.8236C39.3239 39.5544 39.3278 39.2871 39.3171 39.0237C39.3152 38.9547 39.3113 38.8818 39.3055 38.8002C39.3006 38.7253 39.2948 38.6524 39.288 38.5815C39.2539 38.254 39.1937 37.9274 39.113 37.6057C39.0275 37.2645 38.9186 36.9302 38.7913 36.6036L37.972 34.6054L37.971 34.6063L37.1332 32.611C36.9515 32.1814 36.7532 31.7411 36.552 31.294C36.4772 31.1288 36.4014 30.9597 36.2575 30.636L36.2565 30.6351C36.1049 30.2891 35.963 29.9401 35.8376 29.5883C35.7113 29.2336 35.5985 28.8691 35.5043 28.491C35.4139 28.1149 35.341 27.729 35.3011 27.3335C35.2603 26.935 35.2545 26.5277 35.2982 26.1137C35.3254 25.8542 35.3799 25.5957 35.4576 25.343C35.5383 25.0844 35.6452 24.8308 35.7735 24.5878C35.8483 24.4449 35.93 24.304 36.0213 24.1679C36.1127 24.0299 36.2138 23.8987 36.3255 23.7772C37.209 22.7936 38.6445 22.2688 39.8439 21.8295L39.9022 21.8081C39.978 21.7799 40.0635 21.7478 40.1413 21.7167C40.2171 21.6856 40.2861 21.6565 40.3337 21.6312L40.3376 21.6292C40.5087 21.5457 40.6525 21.431 40.7711 21.29C40.8984 21.1394 40.9985 20.9576 41.0714 20.7535H41.0705C41.0909 20.6991 41.1093 20.6447 41.1239 20.5971C41.1404 20.5456 41.155 20.494 41.1647 20.4445V20.4435C41.225 20.1558 41.2473 19.8506 41.2425 19.5357C41.2376 19.2354 41.2075 18.9273 41.1608 18.6192C40.9451 18.4987 40.7138 18.3111 40.5359 18.1138C40.3687 17.9282 40.2434 17.727 40.2074 17.5482C39.8624 17.5861 39.5193 17.6201 39.1781 17.6492C38.7719 17.6832 38.3559 17.7124 37.9282 17.7348C37.798 17.7416 37.6629 17.7474 37.52 17.7523C37.3869 17.7561 37.2508 17.7591 37.1109 17.761C36.9699 17.7639 36.8154 17.7639 36.6618 17.762C36.5228 17.76 36.3887 17.7561 36.2731 17.7503C36.2109 17.7484 36.1253 17.7445 36.0476 17.7386C35.9552 17.7309 35.8542 17.7182 35.7579 17.6978C35.6617 17.6784 35.5655 17.6521 35.4712 17.6201C35.3789 17.588 35.2846 17.5482 35.1894 17.5005C35.0961 17.4539 35.0066 17.4004 34.924 17.3421C34.8385 17.2818 34.7569 17.2148 34.6801 17.1429C34.649 17.1137 34.6198 17.0836 34.5907 17.0525L34.5722 17.034L34.5683 17.0291C34.5518 17.0107 34.5294 16.9844 34.5061 16.9563C34.4876 16.9349 34.4721 16.9154 34.4624 16.9028H34.4614L34.3399 16.7424C34.2009 16.5597 34.0513 16.3886 33.8909 16.2331C33.7363 16.0844 33.5701 15.9484 33.3942 15.8298V15.8288C33.2135 15.7064 33.023 15.5994 32.8218 15.511C32.6303 15.4264 32.433 15.3594 32.2318 15.3147H32.2299C31.8168 15.2175 31.3785 15.2058 30.9596 15.2777C30.5504 15.3468 30.1607 15.4955 29.8302 15.719L29.7175 15.7997L29.5882 15.9056L29.2655 16.1787C29.1518 16.2691 29.041 16.3566 28.9331 16.4382C28.8213 16.5228 28.7086 16.6054 28.5929 16.6861C28.3645 16.8474 28.1323 17 27.898 17.1458C27.6735 17.2867 27.4373 17.4267 27.1953 17.5656C26.9805 17.6901 26.7842 17.7989 26.5898 17.9078C26.3361 18.0497 26.0864 18.1886 25.8307 18.3403H25.8298C25.6354 18.453 25.441 18.5803 25.2495 18.7174C25.0445 18.8641 24.8462 19.0196 24.6586 19.179C24.5779 19.248 24.4992 19.319 24.4234 19.3919C24.3476 19.4638 24.2737 19.5377 24.2037 19.6125C24.1182 19.7048 24.0385 19.7962 23.9676 19.8866C23.8976 19.976 23.8334 20.0683 23.778 20.1636L23.7771 20.1626C23.6779 20.3317 23.6128 20.495 23.5866 20.6496C23.5633 20.7895 23.572 20.9236 23.6167 21.051L23.6177 21.0548C23.6624 21.189 23.7479 21.326 23.8607 21.4572C23.9909 21.6088 24.1561 21.7517 24.3388 21.88H24.3398C24.5148 22.0025 24.7082 22.1162 24.9074 22.2163C25.1193 22.3222 25.3399 22.4146 25.5547 22.4884V22.4894L25.6237 22.5137L25.6286 22.5011L25.8035 22.5701L26.2088 22.7236L26.2166 22.7265C26.34 22.7713 26.4858 22.8247 26.5412 22.8451C26.6374 22.8791 26.7512 22.92 26.8921 22.9686C27.0281 23.0162 27.1652 23.0628 27.2954 23.1066V23.1056C27.5258 23.1824 27.7746 23.2621 28.0253 23.3359C28.2839 23.4118 28.556 23.4856 28.8349 23.5478C28.9069 23.5634 28.9759 23.576 29.0391 23.5877C29.1032 23.5993 29.1673 23.61 29.2305 23.6178L29.2354 23.6188C29.2684 23.6246 29.3131 23.6256 29.3578 23.6275C29.3889 23.6285 29.4191 23.6304 29.4395 23.6314L29.6203 23.6236V23.6227C29.7505 23.6129 29.8759 23.5886 29.9906 23.5468C30.0936 23.5099 30.1869 23.4603 30.2656 23.3981C30.3405 23.334 30.4007 23.2524 30.4454 23.159C30.495 23.0551 30.5261 22.9375 30.5397 22.8111C30.5514 22.6896 30.5504 22.5613 30.5387 22.4321C30.5261 22.2863 30.5008 22.1424 30.4678 22.0054C30.3997 21.7332 30.3064 21.4737 30.1995 21.2317C30.0926 20.9878 29.9731 20.7652 29.8545 20.5669H29.8535C29.734 20.3648 29.6135 20.1879 29.5017 20.0363C29.3889 19.8837 29.283 19.7564 29.1936 19.6543H29.1926C29.0099 19.4473 28.901 19.3491 28.901 19.3481L29.1392 19.0575C29.1401 19.0585 29.2781 19.1635 29.492 19.3647L29.4929 19.3656C29.5999 19.4677 29.7252 19.595 29.8594 19.7457C29.9935 19.8963 30.1393 20.0742 30.2889 20.2822C30.4367 20.4872 30.5883 20.7176 30.7283 20.9713C30.8682 21.2259 30.9994 21.5078 31.1063 21.8178L31.1073 21.8197C31.1598 21.9762 31.2055 22.1405 31.2375 22.3115C31.2696 22.4845 31.2881 22.6653 31.2871 22.8539V22.8548C31.2852 23.0599 31.2482 23.2805 31.1666 23.4885C31.0937 23.6761 30.9858 23.8549 30.8361 24.0066L30.8342 24.0085C30.6894 24.1514 30.5222 24.2622 30.3473 24.3458C30.148 24.442 29.9391 24.5013 29.7398 24.5353L29.732 24.5363L29.6523 24.5479C29.5921 24.5567 29.5328 24.5654 29.4502 24.5722H29.4375C29.4181 24.5732 29.388 24.5742 29.3588 24.5761C29.3054 24.5781 29.2519 24.581 29.1858 24.5781C29.0828 24.5751 28.9943 24.5693 28.9146 24.5625C28.8359 24.5557 28.7523 24.546 28.6688 24.5363H28.6658C28.3422 24.4925 28.0428 24.44 27.7668 24.3846C27.4908 24.3302 27.2274 24.27 26.9825 24.2126C26.9397 24.2029 26.8794 24.1873 26.8172 24.1718L26.7337 24.1514C26.5859 24.1154 26.4674 24.0853 26.3808 24.0639C26.4654 24.3477 26.5451 24.6373 26.617 24.9318C26.7171 25.3391 26.8007 25.7502 26.8619 26.1681V26.1691C26.9008 26.4519 26.9319 26.7406 26.9455 27.0331C26.9591 27.3257 26.9562 27.6231 26.9271 27.9224H26.928C26.9028 28.2218 26.8503 28.5211 26.7716 28.8127C26.6928 29.1082 26.5869 29.3968 26.4576 29.6729V29.6738C26.3303 29.9431 26.1874 30.1967 26.0358 30.4397C25.8871 30.6778 25.7267 30.9091 25.5635 31.1356L25.5625 31.1366L24.6129 32.4351C24.4545 32.6537 24.3097 32.8695 24.1726 33.0843C24.0356 33.2991 23.9005 33.5236 23.7635 33.753C23.6381 33.9726 23.5117 34.201 23.3834 34.444C23.26 34.6763 23.1405 34.9105 23.0277 35.1477L23.0258 35.1487C22.915 35.3761 22.8042 35.6171 22.6934 35.8659C22.5826 36.1177 22.4796 36.3597 22.3824 36.5968C22.2832 36.8379 22.187 37.0847 22.0927 37.3355C21.9975 37.5872 21.9071 37.837 21.8216 38.0839H21.8206C21.6505 38.5766 21.4892 39.0811 21.3346 39.5971C21.182 40.1084 21.0411 40.6235 20.9099 41.1415C20.7777 41.6625 20.6572 42.1815 20.5464 42.6986ZM18.4937 51.3875L18.4995 51.3856C18.8174 51.2932 19.1546 51.1941 19.5103 51.0891C19.8379 50.9929 20.1839 50.8899 20.5493 50.7801C20.7972 50.7052 21.3541 50.5604 22.154 50.3524C27.1574 49.0549 41.6915 45.2839 48.9518 40.6604C49.8897 40.0637 50.7372 39.4698 51.504 38.8692C52.2689 38.2695 52.9532 37.6621 53.5645 37.0352C54.2827 36.2984 54.9611 35.4752 55.5424 34.5811C56.0662 33.7753 56.5114 32.9123 56.837 32.0026H56.8379C57.1732 31.0695 57.3958 30.0694 57.5027 29.0304C57.6096 27.9914 57.5999 26.9126 57.4706 25.8231L57.3501 24.8774L57.3385 24.8784C57.2986 24.6616 57.2646 24.4177 57.2131 24.2078C57.1577 23.9502 57.0955 23.6917 57.0275 23.4341C56.9604 23.1775 56.8865 22.9219 56.8068 22.6682C56.6465 22.156 56.4579 21.6535 56.2451 21.1627C56.0312 20.6719 55.7921 20.1927 55.5288 19.7291V19.7282C54.4869 17.8621 53.0309 16.2555 51.3116 15.0173C49.5923 13.78 47.6115 12.9111 45.5199 12.5214H45.5189C44.9922 12.4174 44.2992 12.3163 43.5518 12.2677C42.9589 12.2288 42.332 12.222 41.7255 12.2706C40.1248 12.4018 38.6756 12.8091 38.4395 12.8752L38.4055 12.8849C37.7475 13.0715 37.3014 13.2639 36.9796 13.4029C36.5938 13.5691 36.3761 13.6634 36.1613 13.5876C35.9173 13.502 35.7609 13.2581 35.5257 12.8936C35.2389 12.4475 34.8288 11.8109 34.0017 11.0771L33.9813 11.0586C33.4321 10.5562 32.9666 10.1305 32.7654 9.97786H32.7664C31.913 9.32862 31.0052 8.77268 30.0703 8.32073C29.1362 7.86976 28.174 7.52376 27.2099 7.29536C26.721 7.17873 26.2234 7.08639 25.7209 7.01933C25.2175 6.95227 24.7082 6.91048 24.1989 6.89493C23.4797 6.88909 22.8052 6.91339 22.1345 6.98531C21.4658 7.05821 20.8011 7.17873 20.1032 7.36728C19.3383 7.5743 18.5938 7.84644 17.8746 8.18272C17.1534 8.51998 16.4566 8.92041 15.7879 9.38402C15.0162 9.91663 14.2882 10.5319 13.6079 11.2239C12.9275 11.9159 12.2958 12.6847 11.7165 13.5263C10.6357 15.096 9.84556 16.7269 9.26922 18.2897C8.51015 20.3473 8.12138 22.2843 7.92505 23.8093C7.72289 25.3517 7.64028 26.9194 7.67818 28.5027C7.71511 30.085 7.87257 31.6838 8.14956 33.2874C8.20691 33.6189 8.26717 33.9435 8.33131 34.2603C8.39546 34.582 8.46544 34.9057 8.5393 35.2303L8.35658 35.2779C8.26425 34.9601 8.17678 34.6404 8.09416 34.3186C8.01058 33.995 7.93282 33.6733 7.85993 33.3516C7.47991 31.6682 7.2311 30.0412 7.11252 28.4482C6.99395 26.8553 7.00561 25.2944 7.14557 23.7432C7.22429 22.814 7.35162 21.8888 7.52753 20.9722C7.70248 20.0567 7.92505 19.1508 8.1933 18.2615C8.49848 17.2692 8.86198 16.3167 9.27991 15.409C9.6988 14.5021 10.1721 13.6401 10.6979 12.8295C11.2937 11.9003 11.9517 11.046 12.6651 10.2714C13.3795 9.49579 14.1502 8.79989 14.9734 8.18952C15.7228 7.62581 16.5304 7.13207 17.376 6.71804C18.2216 6.304 19.1031 5.97063 19.9963 5.72862C20.5882 5.56923 21.1412 5.46037 21.6991 5.3797C22.255 5.29903 22.8139 5.24655 23.4175 5.20087C23.6964 5.20087 23.9773 5.18823 24.2572 5.18823C24.8229 5.19406 25.3875 5.22808 25.9474 5.29028C26.5091 5.35346 27.0661 5.44385 27.6142 5.56339C32.1395 6.54795 34.6976 9.49481 35.9445 10.9313C36.3168 11.3609 36.5685 11.6515 36.6978 11.6952C36.7221 11.703 36.7454 11.6622 36.8708 11.6194C37.5259 11.3959 39.4493 10.7408 41.4145 10.4415C42.1532 10.3287 42.8918 10.2996 43.5809 10.319C44.4693 10.3452 45.275 10.4522 45.9009 10.5707C48.2461 11.01 50.4689 11.9956 52.3972 13.401C54.3265 14.8064 55.9613 16.6326 57.1315 18.7553C57.425 19.2801 57.6903 19.8215 57.9265 20.3755C58.1636 20.9295 58.3706 21.4961 58.5485 22.0724C58.6302 22.3378 58.7069 22.6128 58.7789 22.9025C58.8498 23.1921 58.9169 23.4973 58.9791 23.82C59.0179 24.0075 59.0452 24.1854 59.0714 24.3623L59.0811 24.4264C59.0967 24.5324 59.1113 24.6266 59.1258 24.7151L59.1424 24.823C59.1628 25.0446 59.225 25.3702 59.225 25.5762C59.2843 26.2012 59.3115 26.8057 59.3076 27.3986C59.3027 27.9934 59.2658 28.5736 59.1978 29.1461C58.9917 30.8965 58.4844 32.506 57.7331 33.9707C56.938 35.5209 55.8689 36.9078 54.5918 38.1266H54.5908C53.9056 38.7827 53.166 39.4008 52.3438 40.0034C51.5205 40.6079 50.6128 41.1969 49.5942 41.7908H49.5932C49.3551 41.9298 49.1092 42.0707 48.8458 42.2165C48.5815 42.3623 48.2967 42.5149 47.9798 42.6743C35.0173 49.2211 20.8866 51.2349 18.7921 51.5333C18.6463 51.5537 18.5598 51.5664 18.5394 51.5702L18.4937 51.3875ZM33.9958 17.6832V17.693L33.9949 17.6939C33.9939 17.9505 33.9375 18.1848 33.8471 18.3568C33.7373 18.5658 33.5721 18.695 33.3787 18.696C33.1843 18.696 33.0181 18.5658 32.9073 18.3548C32.815 18.1818 32.7586 17.9447 32.7576 17.6852C32.7567 17.4276 32.812 17.1905 32.9024 17.0165C33.0123 16.8046 33.1785 16.6734 33.3738 16.6724C33.5672 16.6724 33.7334 16.8007 33.8442 17.0107C33.9356 17.1817 33.9929 17.4169 33.9949 17.6735V17.6803L33.9958 17.6832Z" fill="#FEFEFE"/>
<path d="M6.27472 42.0997C6.28639 42.4039 6.22418 42.6605 6.08812 42.8695C5.95302 43.0794 5.74891 43.2301 5.47678 43.3224C5.07635 43.4575 4.71188 43.4118 4.38434 43.1834C4.05777 42.956 3.79827 42.5594 3.6068 41.9938L2.85065 39.7622L7.3798 38.2276L8.09416 40.3376C8.27202 40.8634 8.30993 41.3076 8.20593 41.6691C8.10291 42.0317 7.86382 42.2756 7.48865 42.4029C7.26414 42.4788 7.0474 42.4894 6.83941 42.435C6.63045 42.3806 6.44287 42.2688 6.27472 42.0997ZM5.85583 39.9051L6.18725 40.8819C6.26403 41.1103 6.369 41.2677 6.50118 41.3523C6.63336 41.4378 6.78984 41.4495 6.97159 41.3883C7.14848 41.328 7.26414 41.223 7.31857 41.0724C7.373 40.9217 7.36328 40.7342 7.28649 40.5096L6.95604 39.5329L5.85583 39.9051ZM4.36976 41.6925C4.53596 42.1843 4.81393 42.3641 5.20172 42.2329C5.57689 42.1055 5.68185 41.7965 5.51468 41.3047L5.12494 40.1529L3.98002 40.5407L4.36976 41.6925ZM6.00064 47.3141C5.75766 46.8923 5.6284 46.4578 5.61576 46.0107C5.60215 45.5636 5.70129 45.1486 5.91414 44.7657C6.12699 44.3828 6.43898 44.0727 6.84913 43.8365C7.25928 43.5994 7.68304 43.4847 8.12137 43.4925C8.55971 43.5002 8.96889 43.6217 9.34891 43.8569C9.72893 44.0921 10.0419 44.4236 10.2878 44.8493C10.4948 45.2079 10.6192 45.5685 10.66 45.932C10.7009 46.2945 10.66 46.6425 10.5376 46.9768L9.61424 46.6891C9.77656 46.2226 9.73768 45.7813 9.49859 45.3673C9.35085 45.1107 9.1623 44.9144 8.9339 44.7783C8.7055 44.6423 8.45863 44.5762 8.19232 44.5791C7.92602 44.583 7.66554 44.6588 7.40896 44.8065C7.15237 44.9542 6.95604 45.1428 6.81997 45.3712C6.68293 45.5996 6.61684 45.8474 6.62073 46.1128C6.62462 46.3791 6.70043 46.6405 6.84816 46.8971C7.08725 47.3112 7.45075 47.5639 7.93963 47.6552L7.72677 48.598C7.37202 48.5397 7.0474 48.4007 6.75291 48.182C6.45842 47.9623 6.20766 47.6737 6.00064 47.3141ZM11.0838 52.4439L10.4141 53.027L7.98336 50.2347L11.5892 47.0954L13.9626 49.8207L13.293 50.4038L11.6417 48.5076L10.8583 49.1899L12.3162 50.8635L11.6679 51.4292L10.21 49.7546L9.37515 50.4816L11.0838 52.4439ZM14.9443 56.8963C14.5458 56.6154 14.2474 56.2752 14.0472 55.8748C13.8479 55.4743 13.7643 55.0564 13.7964 54.619C13.8285 54.1826 13.9811 53.7705 14.2542 53.3828C14.5273 52.9959 14.8646 52.7141 15.265 52.5372C15.6664 52.3603 16.0882 52.2991 16.5324 52.3525C16.9765 52.4069 17.3993 52.5761 17.8007 52.8589C18.1399 53.098 18.4033 53.374 18.5929 53.686C18.7824 53.998 18.8912 54.3314 18.9204 54.6851L17.9621 54.8115C17.9125 54.3207 17.6929 53.9367 17.3021 53.6607C17.0601 53.4906 16.8074 53.3915 16.5421 53.3633C16.2777 53.3351 16.026 53.3789 15.7859 53.4936C15.5459 53.6092 15.3408 53.7871 15.1697 54.0291C14.9997 54.2711 14.8996 54.5238 14.8723 54.7891C14.8442 55.0535 14.8879 55.3052 15.0026 55.5453C15.1173 55.7853 15.2961 55.9904 15.5381 56.1615C15.9288 56.4375 16.3652 56.5133 16.8473 56.3909L17.0494 57.3365C16.7034 57.4328 16.3506 57.4425 15.991 57.3676C15.6324 57.2918 15.2825 57.1353 14.9443 56.8963ZM19.9322 59.6585C19.4812 59.4524 19.1177 59.1705 18.8436 58.8109C18.5695 58.4504 18.4072 58.0528 18.3576 57.6184C18.3081 57.183 18.38 56.7514 18.5734 56.3248C18.7678 55.8971 19.0458 55.5599 19.4063 55.3111C19.7669 55.0622 20.1722 54.9223 20.6242 54.8931C21.0751 54.863 21.5271 54.9505 21.979 55.1555C22.431 55.3606 22.7925 55.6434 23.0647 56.0021C23.3368 56.3607 23.4991 56.7582 23.5506 57.1946C23.6031 57.631 23.5312 58.0626 23.3378 58.4892C23.1434 58.9159 22.8654 59.2541 22.5019 59.502C22.1394 59.7498 21.7331 59.8888 21.2841 59.9199C20.8351 59.951 20.3841 59.8635 19.9322 59.6585ZM20.3229 58.8002C20.5795 58.9169 20.839 58.9635 21.0994 58.9392C21.3609 58.9149 21.598 58.8245 21.8128 58.6671C22.0266 58.5087 22.1948 58.2949 22.3173 58.0256C22.4397 57.7564 22.4903 57.4891 22.4679 57.2238C22.4465 56.9585 22.3581 56.7203 22.2045 56.5075C22.0509 56.2956 21.8459 56.1304 21.5883 56.0137C21.3317 55.8971 21.0722 55.8505 20.8117 55.8748C20.5503 55.8981 20.3132 55.9894 20.0984 56.1469C19.8845 56.3053 19.7164 56.5182 19.5939 56.7884C19.4715 57.0576 19.4209 57.3249 19.4433 57.5902C19.4656 57.8546 19.5531 58.0937 19.7067 58.3065C19.8602 58.5184 20.0653 58.6826 20.3229 58.8002ZM25.129 56.3938L28.8904 57.2578L28.6931 58.117L26.0037 57.4988L25.7831 58.4572L27.0748 58.7546C27.6385 58.8838 28.0409 59.0996 28.2819 59.4028C28.523 59.7061 28.5929 60.0793 28.4909 60.5235C28.384 60.989 28.1371 61.3136 27.7493 61.4954C27.3615 61.6771 26.8688 61.6995 26.2691 61.5615L24.0589 61.0541L25.129 56.3938ZM26.3925 60.749C26.6676 60.8121 26.8911 60.8063 27.0622 60.7315C27.2342 60.6556 27.344 60.5147 27.3916 60.3058C27.485 59.8975 27.2478 59.6283 26.6802 59.4971L25.6014 59.2493L25.3147 60.5011L26.3925 60.749ZM33.1279 61.093L30.9081 61.0328L30.4571 62.0455L29.3238 62.0154L31.5826 57.2928L32.675 57.322L34.684 62.1592L33.5235 62.1281L33.1279 61.093ZM32.8014 60.2436L32.0928 58.393L31.2861 60.2027L32.8014 60.2436ZM37.6503 59.6167L36.897 59.7518L37.2392 61.648L36.1564 61.8424L35.3089 57.1373L36.3907 56.9419L36.7338 58.844L37.5132 58.704L38.4074 56.5784L39.5572 56.3714L38.4268 58.9208L40.4523 61.0687L39.2151 61.2913L37.6503 59.6167ZM39.7487 56.2509L40.7507 55.798L42.0336 58.636L42.8296 54.8581L43.7763 54.4305L45.7454 58.7876L44.7492 59.2376L43.4692 56.4054L42.6702 60.1775L41.7178 60.608L39.7487 56.2509ZM51.0589 55.4063C50.675 55.7056 50.2619 55.8932 49.8216 55.9681C49.3804 56.0429 48.9557 56.0011 48.5465 55.8437C48.1383 55.6852 47.7884 55.4189 47.4978 55.0457C47.2062 54.6715 47.0342 54.2672 46.9817 53.8328C46.9292 53.3973 46.9924 52.9755 47.1732 52.5663C47.3539 52.1572 47.6387 51.8024 48.0265 51.5001C48.354 51.2455 48.6942 51.0725 49.048 50.9821C49.4018 50.8917 49.7517 50.8839 50.0996 50.9598L49.9422 51.9132C49.4572 51.818 49.0266 51.9161 48.6485 52.2106C48.4153 52.3924 48.2471 52.6052 48.1431 52.8501C48.0401 53.096 48.008 53.3497 48.0479 53.6131C48.0887 53.8755 48.1995 54.1243 48.3813 54.3576C48.563 54.5909 48.7768 54.76 49.0218 54.863C49.2667 54.967 49.5213 54.9981 49.7837 54.9582C50.0471 54.9174 50.295 54.8066 50.5292 54.6249C50.9063 54.3314 51.1065 53.9358 51.1289 53.4391L52.093 53.5198C52.0833 53.8794 51.991 54.2196 51.8141 54.5413C51.6382 54.864 51.3864 55.1517 51.0589 55.4063ZM55.1157 51.4224C54.7911 51.7976 54.4179 52.0658 53.9951 52.2271C53.5723 52.3885 53.1456 52.4322 52.7141 52.3564C52.2816 52.2816 51.8889 52.0901 51.5342 51.7839C51.1794 51.4768 50.9335 51.1153 50.7965 50.6993C50.6604 50.2823 50.641 49.8537 50.7401 49.4125C50.8383 48.9712 51.0502 48.563 51.3748 48.1869C51.6994 47.8117 52.0726 47.5444 52.4935 47.384C52.9143 47.2247 53.3419 47.1819 53.7754 47.2558C54.2079 47.3286 54.6015 47.5191 54.9563 47.8263C55.312 48.1324 55.5569 48.495 55.692 48.9129C55.8271 49.3308 55.8456 49.7594 55.7484 50.1997C55.6512 50.639 55.4403 51.0472 55.1157 51.4224ZM54.4023 50.8052C54.587 50.5924 54.7055 50.3572 54.7561 50.0996C54.8066 49.842 54.7862 49.5884 54.6958 49.3386C54.6054 49.0888 54.448 48.8672 54.2235 48.6728C53.9999 48.4794 53.7579 48.356 53.4974 48.3025C53.237 48.2481 52.9833 48.2656 52.7355 48.3521C52.4886 48.4396 52.2728 48.5902 52.0882 48.804C51.9035 49.0169 51.7859 49.2531 51.7344 49.5096C51.6838 49.7672 51.7043 50.0209 51.7946 50.2707C51.886 50.5204 52.0425 50.743 52.267 50.9364C52.4905 51.1298 52.7325 51.2533 52.993 51.3077C53.2545 51.3612 53.5081 51.3446 53.755 51.2572C54.0019 51.1697 54.2176 51.019 54.4023 50.8052ZM55.1526 42.3563L59.4116 44.5285L58.9149 45.5024L57.3812 44.72C57.3268 45.1583 57.2189 45.5345 57.0576 45.8513C56.766 46.4228 56.4054 46.7912 55.9768 46.9564C55.5482 47.1207 55.0758 47.0711 54.5607 46.8087L53.2282 46.1293L53.7249 45.1554L54.9475 45.7794C55.2391 45.9281 55.4996 45.9621 55.727 45.8815C55.9554 45.8008 56.144 45.6132 56.2956 45.3168C56.4608 44.9921 56.5532 44.6559 56.5726 44.3079L54.656 43.3302L55.1526 42.3563ZM55.6775 41.364L55.9749 40.3055L58.9742 41.1472L56.592 38.109L56.8729 37.1089L61.4769 38.4025L61.1805 39.4541L58.1889 38.6134L60.5643 41.6507L60.2815 42.6566L55.6775 41.364Z" fill="#FEFEFE"/>
</svg>
