<svg width="1460" height="827" viewBox="0 0 1460 827" fill="none" xmlns="http://www.w3.org/2000/svg">
<path d="M681.79 360.013C683.044 354.664 676.852 350.096 674.678 345.686C672.567 341.388 672.195 333.676 667.793 332.281C663.285 330.859 657.135 332.33 653.404 334.951C649.772 337.493 644.919 342.724 643.727 347.941C642.507 353.269 643.953 361.251 646.115 365.654C648.225 369.965 653.26 374.898 657.63 376.274C662.109 377.707 666.583 371.892 670.324 369.282C673.957 366.74 680.578 365.206 681.79 360.013Z" fill="#8CD8CB" fill-opacity="0.21"/>
<path d="M710.61 325.97C711.867 320.623 710.257 312.558 708.07 308.117C705.943 303.795 699.901 302.918 695.489 301.513C690.965 300.05 685.994 298.911 682.241 301.514C678.589 304.051 674.937 308.917 673.74 314.131C672.508 319.485 675.936 324.436 678.12 328.845C680.246 333.159 682.518 337.064 686.903 338.494C691.422 339.9 695.426 338.302 699.172 335.738C702.823 333.221 709.385 331.167 710.61 325.97V325.97Z" fill="#8CD8CB" fill-opacity="0.21"/>
<path d="M691.484 407.274C690.217 412.602 685.337 418.537 681.565 421.056C677.885 423.476 672.404 420.67 668.054 419.266C663.605 417.803 658.881 415.869 656.811 411.435C654.791 407.092 653.769 400.744 654.972 395.546C656.227 390.204 661.28 387.947 665.055 385.415C668.725 382.956 672.379 380.923 676.749 382.313C681.224 383.766 683.952 387.517 686.022 392C688.043 396.353 692.725 402.077 691.484 407.274V407.274Z" fill="#8CD8CB" fill-opacity="0.21"/>
<path d="M698.18 395.628C687.89 382.216 685.394 379.438 689.612 362.508C691.676 354.243 697.346 345.122 711.064 338.634C729.055 330.109 739.1 333.608 743.603 341.382C749.547 351.713 746.605 370.441 744.062 380.972C741.436 391.819 735.668 407.933 725.743 411.827C722.23 413.21 718.252 412.955 713.701 410.448C709.14 407.971 704.005 403.242 698.18 395.63L698.18 395.628Z" fill="#8CD8CB" fill-opacity="0.21"/>
<path d="M65.632 298.293C66.8852 292.944 60.6936 288.376 58.5191 283.966C56.4084 279.668 56.0364 271.956 51.6345 270.561C47.1267 269.139 40.9764 270.61 37.2452 273.231C33.6135 275.773 28.7606 281.004 27.5686 286.221C26.3485 291.549 27.7942 299.531 29.9563 303.935C32.0662 308.245 37.1019 313.178 41.4712 314.554C45.9509 315.987 50.4245 310.172 54.1654 307.562C57.7984 305.02 64.4198 303.486 65.632 298.293Z" fill="#8CD8CB" fill-opacity="0.21"/>
<path d="M94.4517 264.25C95.7092 258.903 94.0989 250.838 91.9114 246.397C89.7849 242.075 83.7431 241.198 79.3311 239.793C74.8064 238.33 69.8357 237.191 66.0833 239.795C62.4304 242.332 58.7787 247.197 57.5815 252.411C56.3497 257.765 59.7774 262.716 61.9614 267.125C64.0873 271.439 66.3596 275.344 70.7453 276.774C75.2634 278.18 79.2673 276.582 83.0133 274.019C86.6652 271.501 93.2273 269.448 94.4517 264.25V264.25Z" fill="#8CD8CB" fill-opacity="0.21"/>
<path d="M75.3258 345.554C74.059 350.882 69.1781 356.817 65.4066 359.336C61.7267 361.756 56.2455 358.95 51.8958 357.546C47.4464 356.083 42.723 354.149 40.6529 349.715C38.6324 345.372 37.6104 339.024 38.8137 333.826C40.0684 328.485 45.1216 326.227 48.8965 323.695C52.5665 321.237 56.2207 319.203 60.5906 320.593C65.0652 322.046 67.7938 325.797 69.8636 330.28C71.8845 334.633 76.5668 340.358 75.3258 345.554V345.554Z" fill="#8CD8CB" fill-opacity="0.21"/>
<path d="M82.0222 333.908C71.732 320.496 69.2357 317.719 73.4534 300.788C75.5177 292.523 81.1875 283.403 94.9056 276.915C112.897 268.389 122.942 271.888 127.445 279.662C133.389 289.993 130.447 308.721 127.904 319.252C125.278 330.099 119.509 346.213 109.585 350.107C106.072 351.49 102.094 351.236 97.5432 348.728C92.9815 346.251 87.8468 341.522 82.0217 333.911L82.0222 333.908Z" fill="#8CD8CB" fill-opacity="0.21"/>
<path d="M523.632 100.203C524.885 94.8544 518.694 90.2863 516.519 85.8761C514.409 81.5783 514.037 73.8663 509.635 72.4712C505.127 71.0491 498.977 72.5202 495.245 75.1415C491.614 77.6835 486.761 82.914 485.569 88.1311C484.349 93.459 485.794 101.441 487.957 105.845C490.066 110.156 495.102 115.088 499.471 116.464C503.951 117.897 508.425 112.082 512.166 109.472C515.799 106.931 522.42 105.396 523.632 100.203Z" fill="#8CD8CB" fill-opacity="0.21"/>
<path d="M552.452 66.16C553.709 60.8136 552.099 52.748 549.911 48.3074C547.785 43.9854 541.743 43.1084 537.331 41.7031C532.806 40.2402 527.836 39.1016 524.083 41.7048C520.43 44.2418 516.779 49.1074 515.582 54.3216C514.35 59.6756 517.777 64.6262 519.961 69.0352C522.087 73.3495 524.36 77.254 528.745 78.6841C533.263 80.0903 537.267 78.492 541.013 75.9287C544.665 73.4112 551.227 71.3578 552.452 66.16V66.16Z" fill="#8CD8CB" fill-opacity="0.21"/>
<path d="M533.326 147.464C532.059 152.792 527.178 158.727 523.407 161.246C519.727 163.666 514.246 160.86 509.896 159.456C505.447 157.993 500.723 156.059 498.653 151.626C496.633 147.283 495.611 140.934 496.814 135.736C498.069 130.395 503.122 128.137 506.897 125.605C510.567 123.147 514.221 121.113 518.591 122.503C523.065 123.956 525.794 127.708 527.864 132.19C529.885 136.544 534.567 142.268 533.326 147.464V147.464Z" fill="#8CD8CB" fill-opacity="0.21"/>
<path d="M540.022 135.818C529.732 122.406 527.236 119.629 531.453 102.699C533.518 94.4332 539.188 85.3128 552.906 78.8247C570.897 70.2996 580.942 73.7985 585.445 81.5725C591.389 91.903 588.447 110.631 585.904 121.162C583.278 132.01 577.509 148.124 567.585 152.018C564.072 153.4 560.094 153.146 555.543 150.638C550.981 148.161 545.847 143.433 540.022 135.821L540.022 135.818Z" fill="#8CD8CB" fill-opacity="0.21"/>
<path d="M1052.54 61.5069C1057.03 63.1681 1061.11 56.0294 1064.93 53.6191C1068.64 51.2801 1075.19 51.1077 1076.53 45.9686C1077.89 40.7057 1076.85 33.4074 1074.76 28.9201C1072.73 24.5529 1068.46 18.6538 1064.08 17.0691C1059.61 15.4477 1052.79 16.876 1048.99 19.2719C1045.26 21.6095 1040.91 27.3735 1039.59 32.4748C1038.22 37.7043 1042.99 43.1766 1045.08 47.6749C1047.11 52.0437 1048.18 59.8992 1052.54 61.5069Z" fill="#8CD8CB" fill-opacity="0.21"/>
<path d="M1080.4 96.6423C1084.89 98.3086 1091.78 96.6891 1095.62 94.2645C1099.35 91.9078 1100.31 84.8184 1101.65 79.6676C1103.05 74.3862 1104.18 68.568 1102.11 64.0563C1100.08 59.6643 1096.08 55.1933 1091.7 53.6027C1087.21 51.9665 1082.89 55.835 1079.08 58.2565C1075.35 60.6129 1071.96 63.1559 1070.6 68.2746C1069.25 73.5504 1070.47 78.3237 1072.51 82.8263C1074.52 87.2166 1076.04 95.0202 1080.4 96.6423V96.6423Z" fill="#8CD8CB" fill-opacity="0.21"/>
<path d="M1012.15 71.2999C1007.67 69.6234 1002.81 63.667 1000.81 59.1357C998.881 54.7158 1001.45 48.3536 1002.79 43.2763C1004.18 38.0836 1005.98 32.5842 1009.81 30.2977C1013.56 28.0665 1018.98 27.0811 1023.35 28.6784C1027.83 30.3412 1029.57 36.3737 1031.58 40.9094C1033.54 45.319 1035.14 49.6953 1033.81 54.7968C1032.42 60.0196 1029.15 63.1056 1025.28 65.39C1021.52 67.6213 1016.51 72.9415 1012.15 71.2999V71.2999Z" fill="#8CD8CB" fill-opacity="0.21"/>
<path d="M1021.79 79.593C1033.51 67.9297 1035.95 65.0837 1050.15 70.6379C1057.09 73.3555 1064.62 80.3514 1069.65 96.7406C1076.25 118.235 1072.94 129.952 1066.2 134.99C1057.24 141.638 1041.46 137.526 1032.63 134.166C1023.52 130.697 1010.06 123.344 1007.1 111.515C1006.05 107.327 1006.41 102.648 1008.69 97.3718C1010.95 92.0818 1015.13 86.1941 1021.78 79.5924L1021.79 79.593Z" fill="#8CD8CB" fill-opacity="0.21"/>
<path d="M268.924 683.128C273.629 683.279 275.905 675.096 279.014 671.549C282.047 668.102 288.307 665.827 288.4 660.453C288.49 654.952 285.803 648.265 282.75 644.623C279.786 641.075 274.316 636.775 269.734 636.661C265.055 636.543 258.829 640.112 255.722 643.643C252.679 647.092 249.826 654.04 249.74 659.371C249.635 664.843 255.496 668.569 258.542 672.225C261.506 675.774 264.358 682.985 268.924 683.128Z" fill="#8CD8CB" fill-opacity="0.21"/>
<path d="M303.866 707.952C308.569 708.109 314.824 704.331 317.955 700.762C321.004 697.291 320.277 690.165 320.376 684.778C320.495 679.247 320.24 673.284 317.197 669.613C314.232 666.041 309.35 663.027 304.77 662.908C300.066 662.782 296.812 667.893 293.706 671.45C290.664 674.919 287.994 678.456 287.868 683.819C287.794 689.328 290.07 693.528 293.079 697.201C296.028 700.778 299.292 707.797 303.866 707.952V707.952Z" fill="#8CD8CB" fill-opacity="0.21"/>
<path d="M232.337 705.559C227.646 705.387 221.589 701.224 218.61 697.511C215.735 693.879 216.731 686.932 216.844 681.616C216.981 676.172 217.44 670.301 220.594 666.868C223.686 663.513 228.668 660.821 233.236 660.952C237.935 661.107 241.005 666.35 243.996 670.063C246.9 673.675 249.451 677.37 249.354 682.705C249.231 688.176 246.797 692.199 243.603 695.643C240.503 699.001 236.913 705.734 232.337 705.559V705.559Z" fill="#8CD8CB" fill-opacity="0.21"/>
<path d="M243.532 710.431C252.106 695.435 253.795 691.912 268.746 692.679C276.046 693.06 284.915 697.362 293.547 711.509C304.881 730.058 304.41 742.396 299.089 749.415C292.009 758.697 275.884 759.821 266.603 759.436C257.043 759.032 242.392 756.294 236.805 745.867C234.824 742.178 234.079 737.563 235.052 731.752C235.998 725.937 238.66 718.925 243.53 710.431L243.532 710.431Z" fill="#8CD8CB" fill-opacity="0.21"/>
<path d="M864.428 740.074C864.949 745.589 872.137 747.118 875.545 750.26C878.859 753.326 881.634 760.323 886.161 759.69C890.794 759.036 896.041 754.976 898.679 750.908C901.25 746.957 904.108 739.976 903.571 734.61C903.025 729.129 899.167 722.351 895.773 719.209C892.456 716.131 886.226 713.758 881.736 714.394C877.125 715.025 874.804 722.384 872.153 726.446C869.581 730.397 863.917 734.722 864.428 740.074Z" fill="#8CD8CB" fill-opacity="0.21"/>
<path d="M848.397 784.305C848.914 789.82 852.95 796.603 856.38 799.768C859.716 802.849 865.602 801.017 870.141 800.389C874.802 799.765 879.776 798.645 882.44 794.584C885.032 790.629 886.889 784.512 886.358 779.146C885.815 773.636 881.073 770.541 877.656 767.404C874.323 764.33 870.983 761.7 866.461 762.293C861.823 762.967 858.609 766.205 855.939 770.225C853.341 774.162 847.896 778.943 848.397 784.305V784.305Z" fill="#8CD8CB" fill-opacity="0.21"/>
<path d="M840.538 700.442C840.035 694.94 842.697 687.292 845.405 683.301C848.059 679.442 854.032 679.647 858.513 679.045C863.105 678.454 868.099 678.181 871.418 681.391C874.662 684.538 877.612 689.984 878.132 695.337C878.65 700.846 874.67 705.155 871.963 709.16C869.33 713.05 866.578 716.539 862.083 717.162C857.471 717.773 853.755 715.486 850.421 712.23C847.173 709.074 841.023 705.81 840.538 700.442V700.442Z" fill="#8CD8CB" fill-opacity="0.21"/>
<path d="M837.99 714.187C851.769 722.132 854.962 723.617 856.38 741.184C857.068 749.762 854.677 760.713 843.985 772.746C829.967 788.541 819.539 789.693 812.909 784.448C804.135 777.46 800.966 758.783 800.009 747.892C799.029 736.671 799.308 719.183 807.296 711.221C810.122 708.398 813.895 706.892 818.91 707.227C823.926 707.529 830.183 709.669 837.99 714.185L837.99 714.187Z" fill="#8CD8CB" fill-opacity="0.21"/>
<path d="M564.886 624.386C565.346 629.244 571.678 630.591 574.68 633.359C577.599 636.06 580.044 642.223 584.031 641.666C588.113 641.09 592.735 637.513 595.059 633.93C597.324 630.449 599.841 624.299 599.368 619.572C598.887 614.744 595.489 608.773 592.499 606.006C589.577 603.294 584.089 601.203 580.134 601.763C576.072 602.32 574.027 608.802 571.692 612.38C569.426 615.861 564.437 619.671 564.886 624.386Z" fill="#8CD8CB" fill-opacity="0.21"/>
<path d="M550.764 663.349C551.219 668.207 554.775 674.182 557.797 676.97C560.735 679.684 565.92 678.07 569.919 677.517C574.025 676.968 578.407 675.981 580.753 672.404C583.037 668.92 584.673 663.531 584.205 658.805C583.726 653.95 579.549 651.224 576.539 648.461C573.603 645.753 570.661 643.436 566.677 643.959C562.591 644.552 559.76 647.404 557.408 650.946C555.12 654.414 550.323 658.626 550.764 663.349V663.349Z" fill="#8CD8CB" fill-opacity="0.21"/>
<path d="M543.841 589.473C543.398 584.626 545.743 577.889 548.128 574.373C550.467 570.974 555.728 571.154 559.675 570.624C563.72 570.104 568.12 569.863 571.044 572.69C573.902 575.463 576.5 580.261 576.958 584.976C577.415 589.829 573.908 593.625 571.524 597.153C569.204 600.579 566.78 603.653 562.82 604.202C558.757 604.74 555.485 602.725 552.548 599.857C549.686 597.077 544.268 594.202 543.841 589.473V589.473Z" fill="#8CD8CB" fill-opacity="0.21"/>
<path d="M541.597 601.581C553.735 608.58 556.548 609.889 557.797 625.363C558.403 632.919 556.297 642.566 546.878 653.166C534.529 667.081 525.343 668.095 519.502 663.475C511.773 657.319 508.982 640.867 508.139 631.273C507.276 621.388 507.521 605.982 514.558 598.968C517.047 596.482 520.371 595.155 524.789 595.45C529.208 595.716 534.719 597.601 541.596 601.579L541.597 601.581Z" fill="#8CD8CB" fill-opacity="0.21"/>
<path d="M1204.5 736.401C1204.96 741.259 1211.29 742.606 1214.3 745.374C1217.21 748.075 1219.66 754.239 1223.65 753.681C1227.73 753.105 1232.35 749.528 1234.67 745.945C1236.94 742.464 1239.46 736.314 1238.98 731.587C1238.5 726.759 1235.1 720.788 1232.11 718.021C1229.19 715.309 1223.7 713.218 1219.75 713.778C1215.69 714.335 1213.64 720.818 1211.31 724.395C1209.04 727.876 1204.05 731.686 1204.5 736.401Z" fill="#8CD8CB" fill-opacity="0.21"/>
<path d="M1190.38 775.364C1190.83 780.222 1194.39 786.198 1197.41 788.985C1200.35 791.7 1205.54 790.086 1209.53 789.532C1213.64 788.983 1218.02 787.996 1220.37 784.419C1222.65 780.935 1224.29 775.546 1223.82 770.82C1223.34 765.965 1219.16 763.239 1216.15 760.476C1213.22 757.768 1210.28 755.451 1206.29 755.974C1202.21 756.567 1199.38 759.419 1197.02 762.961C1194.74 766.429 1189.94 770.641 1190.38 775.364V775.364Z" fill="#8CD8CB" fill-opacity="0.21"/>
<path d="M1183.46 701.488C1183.01 696.641 1185.36 689.904 1187.74 686.388C1190.08 682.989 1195.34 683.169 1199.29 682.639C1203.34 682.119 1207.74 681.878 1210.66 684.705C1213.52 687.478 1216.12 692.276 1216.57 696.991C1217.03 701.844 1213.52 705.64 1211.14 709.168C1208.82 712.594 1206.4 715.668 1202.44 716.217C1198.37 716.755 1195.1 714.74 1192.16 711.872C1189.3 709.092 1183.88 706.217 1183.46 701.488V701.488Z" fill="#8CD8CB" fill-opacity="0.21"/>
<path d="M1181.21 713.597C1193.35 720.595 1196.16 721.904 1197.41 737.378C1198.02 744.935 1195.91 754.582 1186.49 765.182C1174.14 779.096 1164.96 780.111 1159.12 775.49C1151.39 769.335 1148.6 752.882 1147.75 743.288C1146.89 733.403 1147.14 717.998 1154.17 710.983C1156.66 708.497 1159.99 707.17 1164.4 707.465C1168.82 707.731 1174.33 709.617 1181.21 713.594L1181.21 713.597Z" fill="#8CD8CB" fill-opacity="0.21"/>
<path d="M1396.5 302.49C1396.96 307.348 1403.29 308.695 1406.3 311.463C1409.21 314.164 1411.66 320.328 1415.65 319.77C1419.73 319.194 1424.35 315.618 1426.67 312.034C1428.94 308.554 1431.46 302.403 1430.98 297.676C1430.5 292.848 1427.1 286.877 1424.11 284.11C1421.19 281.398 1415.7 279.308 1411.75 279.868C1407.69 280.424 1405.64 286.907 1403.31 290.485C1401.04 293.965 1396.05 297.775 1396.5 302.49Z" fill="#8CD8CB" fill-opacity="0.21"/>
<path d="M1382.38 341.454C1382.83 346.312 1386.39 352.287 1389.41 355.075C1392.35 357.789 1397.54 356.175 1401.53 355.622C1405.64 355.072 1410.02 354.086 1412.37 350.509C1414.65 347.024 1416.29 341.636 1415.82 336.909C1415.34 332.055 1411.16 329.328 1408.15 326.565C1405.22 323.857 1402.28 321.54 1398.29 322.063C1394.21 322.656 1391.38 325.509 1389.02 329.05C1386.74 332.519 1381.94 336.73 1382.38 341.454V341.454Z" fill="#8CD8CB" fill-opacity="0.21"/>
<path d="M1375.46 267.577C1375.01 262.731 1377.36 255.993 1379.74 252.478C1382.08 249.079 1387.34 249.258 1391.29 248.729C1395.34 248.208 1399.74 247.967 1402.66 250.795C1405.52 253.567 1408.12 258.365 1408.57 263.081C1409.03 267.933 1405.52 271.73 1403.14 275.257C1400.82 278.684 1398.4 281.757 1394.44 282.306C1390.37 282.845 1387.1 280.829 1384.16 277.962C1381.3 275.181 1375.88 272.306 1375.46 267.577V267.577Z" fill="#8CD8CB" fill-opacity="0.21"/>
<path d="M1373.21 279.686C1385.35 286.685 1388.16 287.993 1389.41 303.467C1390.02 311.024 1387.91 320.671 1378.49 331.271C1366.14 345.185 1356.96 346.2 1351.12 341.579C1343.39 335.424 1340.6 318.971 1339.75 309.377C1338.89 299.492 1339.14 284.087 1346.17 277.073C1348.66 274.586 1351.99 273.259 1356.4 273.554C1360.82 273.82 1366.33 275.706 1373.21 279.684L1373.21 279.686Z" fill="#8CD8CB" fill-opacity="0.21"/>
</svg>
